<?xml version="1.0" encoding="utf-8"?>
<!-- Generator: Adobe Illustrator 20.0.0, SVG Export Plug-In . SVG Version: 6.00 Build 0)  -->
<!DOCTYPE svg PUBLIC "-//W3C//DTD SVG 1.1//EN" "http://www.w3.org/Graphics/SVG/1.1/DTD/svg11.dtd">
<svg version="1.1" id="Calque_1" xmlns="http://www.w3.org/2000/svg" xmlns:xlink="http://www.w3.org/1999/xlink" x="0px" y="0px"
	 viewBox="0 0 500 500" style="enable-background:new 0 0 500 500;" xml:space="preserve">
<style type="text/css">
	.st0{fill:none;stroke:#1A171B;stroke-width:0.4944;stroke-miterlimit:1.223;}
	.st1{fill:#1A171B;}
	.st2{fill:#00A79E;}
	.st3{fill:#E20056;}
	.st4{fill:#7E2C5C;}
</style>
<g>
	<g>
		<g>
			<path class="st0" d="M53.6,377.4c1.4,0,2.7-0.2,3.3-2.6l11.4-30.1l3,33.4c0.2,1.4,1.2,1.7,2.5,1.7c1.1,0,2-0.3,2.6-0.6l-4.7-42.3
				c-0.8-0.4-1.4-0.6-2.9-0.6c-1.6,0-2.7,0.7-3.3,2.6L53.6,371l-13.8-34.4c-0.7-0.2-1.2-0.4-2.4-0.4c-2.2,0-3.2,1.3-3.4,3.4
				l-2.8,39.8c0.5,0.3,1.5,0.4,2.4,0.4c1.4,0,2.3-0.4,2.4-1.7l2.1-33.4l12.3,30.1C51.1,376.7,52.1,377.4,53.6,377.4z"/>
			<path class="st0" d="M86.3,341.3c0,2,1.1,3,3,3s3-0.9,3-3c0-2.1-1.1-3.1-3-3.1C87.3,338.2,86.3,339.2,86.3,341.3z M87.8,349.8
				c-2.3,0-4,0.7-4,2.6c0,0.8,0.1,1.4,0.4,1.9H86c0.9,0,1.6,0.4,1.6,1.7v19.6c0,3.1,1.6,4.2,4.1,4.2c3,0,4.2-0.9,4.2-2.3
				c0-0.7-0.1-1.2-0.4-1.6h-1.8c-0.9,0-1.4-0.4-1.4-1.6v-19.7C92.2,350.7,90.6,349.8,87.8,349.8z"/>
			<path class="st0" d="M112.8,349.2c-6.9,0-10.4,3.7-10.4,8.5c0,5.5,2.8,7.8,10.3,9.1c5.1,0.9,7,2.2,7,5c0,2.4-1.8,4.4-7,4.4
				c-3.7,0-8.2-1.7-10-3.1c-0.7,0.6-1,1.3-1,2.6c0,2.2,4.6,4.8,11.3,4.8c7.4,0,11.1-3.2,11.1-8.7c0-5.3-3-7.9-10.3-9.1
				c-5-0.9-7.2-2.1-7.2-4.7c0-2.1,1.6-3.9,6-3.9c4.3,0,7.9,1.2,9.3,2.4c0.7-0.4,1.1-1.3,1.1-2.5
				C123.1,351.9,119.7,349.2,112.8,349.2z"/>
			<path class="st0" d="M141.2,349.2c-6.9,0-10.4,3.7-10.4,8.5c0,5.5,2.8,7.8,10.3,9.1c5.1,0.9,7,2.2,7,5c0,2.4-1.8,4.4-7,4.4
				c-3.7,0-8.2-1.7-10-3.1c-0.7,0.6-1,1.3-1,2.6c0,2.2,4.6,4.8,11.3,4.8c7.4,0,11.1-3.2,11.1-8.7c0-5.3-3-7.9-10.3-9.1
				c-5-0.9-7.2-2.1-7.2-4.7c0-2.1,1.6-3.9,6-3.9c4.3,0,7.9,1.2,9.3,2.4c0.7-0.4,1.1-1.3,1.1-2.5C151.5,351.9,148,349.2,141.2,349.2z
				"/>
			<path class="st0" d="M161.1,341.3c0,2,1.1,3,3,3c2,0,3-0.9,3-3c0-2.1-1.1-3.1-3-3.1C162.1,338.2,161.1,339.2,161.1,341.3z
				 M162.7,349.8c-2.3,0-4,0.7-4,2.6c0,0.8,0.1,1.4,0.4,1.9h1.8c0.9,0,1.6,0.4,1.6,1.7v19.6c0,3.1,1.6,4.2,4.1,4.2
				c3,0,4.2-0.9,4.2-2.3c0-0.7-0.1-1.2-0.4-1.6h-1.8c-0.9,0-1.4-0.4-1.4-1.6v-19.7C167.1,350.7,165.4,349.8,162.7,349.8z"/>
			<path class="st0" d="M182.1,364.9c0-7.6,3.7-11.3,9-11.3c5.2,0,8.5,3.6,8.5,11.3c0,8.3-3.5,11.1-8.8,11.1
				C185.6,376.1,182.1,373.2,182.1,364.9z M177.2,364.9c0,11.1,5.6,15.6,13.6,15.6c8,0,13.7-4.2,13.7-15.6
				c0-10.7-5.3-15.7-13.4-15.7C183,349.2,177.2,354.2,177.2,364.9z"/>
			<path class="st0" d="M214.7,349.8c-3,0-4.4,0.8-4.4,2.4c0,0.9,0.2,1.4,0.4,2.1h2.2c0.9,0,1.6,0.4,1.6,1.7v21.4
				c0,2,1.1,2.4,2.3,2.4c1.2,0,2.1-0.2,2.7-0.6v-19.1c2.5-3.6,5.5-6.2,9.5-6.2c3.2,0,5.3,2.3,5.3,6.6v14.9c0,3.2,1.4,4.4,4,4.4
				c3.2,0,4.6-0.9,4.6-2.2c0-0.7-0.1-1-0.2-1.3h-2.4c-0.8,0-1.2-0.7-1.2-1.7v-15.2c0-7-3.4-10.3-8.6-10.3c-4.6,0-8.1,2.6-10.9,6.4
				v-0.9C219.5,351.4,217.7,349.8,214.7,349.8z"/>
			<path class="st0" d="M268.7,336.2c-1.1,0-2,0.2-2.5,0.4v40.9c0,1.7,0.9,2.2,2.2,2.2h21c2.1,0,2.8-1.1,2.8-2.6
				c0-0.9-0.3-1.7-0.6-2H271v-37C271,336.7,269.8,336.2,268.7,336.2z"/>
			<path class="st0" d="M301.7,364.9c0-7.6,3.7-11.3,9-11.3c5.2,0,8.5,3.6,8.5,11.3c0,8.3-3.5,11.1-8.8,11.1
				C305.3,376.1,301.7,373.2,301.7,364.9z M296.8,364.9c0,11.1,5.6,15.6,13.6,15.6c8,0,13.7-4.2,13.7-15.6
				c0-10.7-5.3-15.7-13.4-15.7C302.7,349.2,296.8,354.2,296.8,364.9z"/>
			<path class="st0" d="M354,353.4c-0.1-1.1-0.6-1.7-1.3-2.1c-1.7-1.1-3.5-2.1-8.2-2.1c-6.4,0-13.4,4-13.4,15.7
				c0,9.6,5.4,15.6,13.8,15.6c3.9,0,6.5-1.2,7.7-1.9c1.2-0.7,1.9-1.7,1.9-2.9c0-0.9-0.3-1.6-0.8-2.1c-1.4,1.1-4.6,2.4-8.5,2.4
				c-5.6,0-9.5-4.1-9.5-11.1c0-8.2,4.3-11,9-11c4.1,0,5.4,0.6,8.2,1.9C353.6,355.1,354,354,354,353.4z"/>
			<path class="st0" d="M367.9,376.3c-3.1,0-4.6-2.4-4.6-5.1c0-2.7,1.2-4.3,4.4-4.6l10.3-1v5.9C374.4,374.7,371.3,376.3,367.9,376.3
				z M362.3,355.7c1.6-1.1,5.5-2.2,9.2-2.2c3.4,0,6.5,1.3,6.5,5.9v2.7l-10.5,0.6c-5.7,0.3-8.5,3.5-8.5,8.4c0,5.4,2.7,9.3,8.2,9.3
				c3.9,0,7.7-2.2,10.8-5.2v0.2c0,2.6,1.5,4.3,3.9,4.3c2.7,0,4-0.6,4-1.8c0-0.8-0.2-1.4-0.4-1.6h-1.7c-1,0-1.6-0.6-1.6-2.2v-16
				c0-6.7-4.9-9-10.5-9c-4.4,0-10.3,1.6-10.3,4.5C361.4,354.5,361.8,355.3,362.3,355.7z"/>
			<path class="st0" d="M396.8,338.3c0-1.2-0.6-2.1-2.4-2.1c-1.2,0-1.7,0.3-2.3,0.7v35.3c0,5.3,2.2,7.7,7.3,7.7c4.3,0,6-1.3,6-2.6
				c0-0.7-0.1-1.1-0.2-1.4H401c-3.1,0-4.2-1-4.2-4.7V338.3z"/>
			<path class="st0" d="M423,353.4c4.9,0,7.1,3.5,7.1,8.5h-15.7C415.3,356.2,419,353.4,423,353.4z M433.9,365.3
				c0.3-0.8,0.4-2,0.4-3.2c0-7.3-3.7-12.9-11.2-12.9c-7,0-13.6,5.2-13.6,15.7c0,9.3,5.3,15.5,13.3,15.5c5.4,0,8.4-1.7,10.1-2.9
				c0.6-0.4,1.1-1.1,1.1-2.2c0-1.1-0.4-1.7-1.1-2.1c-1.4,1.1-5.3,2.8-9.7,2.8c-5.2,0-9-3.7-9.1-10.8H433.9z"/>
		</g>
		<g>
			<path class="st1" d="M50.4,374.8l-12.3-30.1l-2.1,33.3c-0.1,1.3-1,1.7-2.4,1.7c-0.9,0-1.9-0.2-2.4-0.4l2.8-39.7
				c0.2-2.1,1.2-3.4,3.4-3.4c1.1,0,1.7,0.1,2.4,0.4L53.6,371l11.8-32.1c0.6-1.9,1.7-2.6,3.3-2.6c1.5,0,2.1,0.2,2.9,0.6l4.7,42.3
				c-0.6,0.4-1.4,0.6-2.5,0.6c-1.3,0-2.4-0.3-2.5-1.7l-3-33.3l-11.4,30.1c-0.6,2.4-1.9,2.6-3.3,2.6
				C52.1,377.4,51.1,376.7,50.4,374.8z"/>
			<path class="st1" d="M92.3,354.7v19.7c0,1.2,0.6,1.6,1.4,1.6h1.8c0.2,0.4,0.4,0.8,0.4,1.6c0,1.4-1.2,2.3-4.2,2.3
				c-2.6,0-4.1-1.1-4.1-4.2V356c0-1.4-0.6-1.7-1.6-1.7h-1.8c-0.2-0.4-0.4-1.1-0.4-1.9c0-1.8,1.7-2.6,4-2.6
				C90.6,349.8,92.3,350.7,92.3,354.7z M89.4,338.2c2,0,3,1.1,3,3.1c0,2.1-1.1,3-3,3c-2,0-3-1-3-3C86.3,339.2,87.3,338.2,89.4,338.2
				z"/>
			<path class="st1" d="M123.2,353.9c0,1.2-0.4,2.1-1.1,2.5c-1.4-1.2-5-2.4-9.3-2.4c-4.4,0-6,1.8-6,3.9c0,2.6,2.2,3.7,7.2,4.7
				c7.3,1.2,10.3,3.9,10.3,9.1c0,5.5-3.7,8.7-11.1,8.7c-6.7,0-11.3-2.6-11.3-4.8c0-1.3,0.3-2,1-2.6c1.8,1.4,6.3,3.1,10,3.1
				c5.2,0,7-2,7-4.4c0-2.8-1.9-4-7-5c-7.5-1.3-10.3-3.6-10.3-9.1c0-4.8,3.5-8.5,10.4-8.5C119.7,349.2,123.2,351.9,123.2,353.9z"/>
			<path class="st1" d="M151.5,353.9c0,1.2-0.4,2.1-1.1,2.5c-1.4-1.2-5-2.4-9.3-2.4c-4.4,0-6,1.8-6,3.9c0,2.6,2.2,3.7,7.2,4.7
				c7.3,1.2,10.3,3.9,10.3,9.1c0,5.5-3.7,8.7-11.1,8.7c-6.7,0-11.3-2.6-11.3-4.8c0-1.3,0.3-2,1-2.6c1.8,1.4,6.3,3.1,10,3.1
				c5.2,0,7-2,7-4.4c0-2.8-1.9-4-7-5c-7.5-1.3-10.3-3.6-10.3-9.1c0-4.8,3.5-8.5,10.4-8.5C148.1,349.2,151.5,351.9,151.5,353.9z"/>
			<path class="st1" d="M167.2,354.7v19.7c0,1.2,0.6,1.6,1.4,1.6h1.8c0.2,0.4,0.4,0.8,0.4,1.6c0,1.4-1.2,2.3-4.2,2.3
				c-2.6,0-4.1-1.1-4.1-4.2V356c0-1.4-0.6-1.7-1.6-1.7h-1.8c-0.2-0.4-0.4-1.1-0.4-1.9c0-1.8,1.7-2.6,4-2.6
				C165.5,349.8,167.2,350.7,167.2,354.7z M164.2,338.2c2,0,3,1.1,3,3.1c0,2.1-1.1,3-3,3c-2,0-3-1-3-3
				C161.2,339.2,162.2,338.2,164.2,338.2z"/>
			<path class="st1" d="M191.1,349.2c8.1,0,13.4,5,13.4,15.7c0,11.3-5.7,15.6-13.7,15.6c-8,0-13.6-4.4-13.6-15.6
				C177.2,354.2,183.1,349.2,191.1,349.2z M190.8,376.1c5.3,0,8.8-2.9,8.8-11.1c0-7.7-3.2-11.3-8.5-11.3c-5.3,0-9,3.7-9,11.3
				C182.2,373.2,185.7,376.1,190.8,376.1z"/>
			<path class="st1" d="M219.6,354.7v0.9c2.9-3.8,6.3-6.4,10.9-6.4c5.2,0,8.6,3.3,8.6,10.3v15.2c0,1,0.4,1.7,1.2,1.7h2.4
				c0.1,0.3,0.2,0.6,0.2,1.3c0,1.3-1.4,2.2-4.6,2.2c-2.7,0-4-1.2-4-4.4v-14.9c0-4.3-2.1-6.6-5.3-6.6c-4,0-7,2.6-9.5,6.2v19.1
				c-0.6,0.4-1.4,0.6-2.7,0.6c-1.2,0-2.3-0.4-2.3-2.4V356c0-1.3-0.6-1.7-1.6-1.7h-2.2c-0.2-0.6-0.4-1.1-0.4-2.1
				c0-1.6,1.4-2.4,4.4-2.4C217.7,349.8,219.6,351.4,219.6,354.7z"/>
			<path class="st1" d="M271.1,338.2v37h20.6c0.2,0.3,0.6,1.1,0.6,2c0,1.6-0.7,2.6-2.8,2.6h-21c-1.3,0-2.2-0.6-2.2-2.2v-40.9
				c0.5-0.2,1.4-0.4,2.5-0.4C269.9,336.3,271.1,336.7,271.1,338.2z"/>
			<path class="st1" d="M310.7,349.2c8.1,0,13.4,5,13.4,15.7c0,11.3-5.7,15.6-13.7,15.6c-8,0-13.6-4.4-13.6-15.6
				C296.9,354.2,302.7,349.2,310.7,349.2z M310.4,376.1c5.3,0,8.8-2.9,8.8-11.1c0-7.7-3.2-11.3-8.5-11.3c-5.3,0-9,3.7-9,11.3
				C301.8,373.2,305.3,376.1,310.4,376.1z"/>
			<path class="st1" d="M352.9,355.8c-2.8-1.4-4.1-1.9-8.2-1.9c-4.7,0-9,2.8-9,11c0,7,3.9,11.1,9.5,11.1c3.9,0,7-1.4,8.5-2.4
				c0.5,0.4,0.8,1.2,0.8,2.1c0,1.2-0.7,2.2-1.9,2.9c-1.2,0.7-3.7,1.9-7.7,1.9c-8.4,0-13.7-6-13.7-15.6c0-11.6,7-15.7,13.4-15.7
				c4.7,0,6.5,1,8.2,2.1c0.7,0.4,1.2,1.1,1.3,2.1C354,354,353.6,355.1,352.9,355.8z"/>
			<path class="st1" d="M361.5,353.7c0-3,5.9-4.5,10.3-4.5c5.6,0,10.5,2.3,10.5,9v16c0,1.6,0.6,2.2,1.6,2.2h1.7
				c0.2,0.2,0.4,0.8,0.4,1.6c0,1.2-1.2,1.8-4,1.8c-2.4,0-3.9-1.7-3.9-4.3v-0.2c-3,3-6.8,5.2-10.8,5.2c-5.5,0-8.2-3.9-8.2-9.3
				c0-4.9,2.8-8.1,8.5-8.4l10.5-0.6v-2.7c0-4.6-3-5.9-6.5-5.9c-3.7,0-7.6,1.1-9.2,2.2C361.8,355.3,361.5,354.5,361.5,353.7z
				 M378,371.5v-5.8l-10.3,1c-3.2,0.3-4.4,1.9-4.4,4.6c0,2.7,1.5,5.1,4.6,5.1C371.4,376.3,374.5,374.7,378,371.5z"/>
			<path class="st1" d="M396.9,371c0,3.7,1.1,4.7,4.2,4.7h4.2c0.1,0.4,0.2,0.7,0.2,1.4c0,1.3-1.7,2.6-6,2.6c-5.1,0-7.3-2.3-7.3-7.7
				v-35.3c0.6-0.4,1.1-0.7,2.3-0.7c1.8,0.1,2.4,0.9,2.4,2.1V371z"/>
			<path class="st1" d="M414.2,365.3c0.1,7.1,3.9,10.8,9.1,10.8c4.4,0,8.3-1.7,9.7-2.8c0.6,0.4,1.1,1,1.1,2.1c0,1.1-0.4,1.7-1.1,2.2
				c-1.7,1.2-4.7,2.9-10.1,2.9c-8,0-13.3-6.2-13.3-15.5c0-10.5,6.6-15.7,13.6-15.7c7.5,0,11.2,5.7,11.2,12.9c0,1.2-0.1,2.4-0.4,3.2
				H414.2z M414.5,361.9h15.7c0-5-2.2-8.5-7.1-8.5C419.1,353.4,415.4,356.2,414.5,361.9z"/>
		</g>
		<g>
			<path class="st1" d="M34.8,412c2-2.5,4.9-4.2,7.9-4.2c4.7,0,9.1,2.7,9.1,12.4c0,9-4.8,13.2-9.9,13.2c-3.2,0-5.5-1.4-7.1-3v12.1
				c-0.5,0.3-1,0.4-2,0.4c-1,0-1.9-0.4-1.9-2v-27.6c0-1.1-0.5-1.4-1.2-1.4h-1.8c-0.2-0.5-0.4-0.9-0.4-1.7c0-1.3,1.1-1.9,3.6-1.9
				C33.4,408.2,34.7,409.6,34.8,412z M34.8,415.6v10.7c1.1,1.4,3.3,3.5,6.3,3.5c3.8,0,6.8-2.9,6.8-9.2c0-7.4-3.2-8.8-6.3-8.8
				C38.9,411.8,36.7,413.1,34.8,415.6z"/>
			<path class="st1" d="M68.9,407.7c6.6,0,11,4.1,11,12.9c0,9.3-4.7,12.8-11.3,12.8c-6.5,0-11.1-3.6-11.1-12.8
				C57.5,411.8,62.3,407.7,68.9,407.7z M68.7,429.8c4.3,0,7.2-2.4,7.2-9.2c0-6.3-2.7-9.3-7-9.3c-4.3,0-7.4,3-7.4,9.3
				C61.6,427.5,64.5,429.8,68.7,429.8z"/>
			<path class="st1" d="M104,428.8v-0.5c-2.4,3.1-5.5,5-9.1,5c-4,0-6.9-2.1-6.9-8.2v-12c0-1-0.4-1.4-1.2-1.4h-2.3
				c-0.1-0.5-0.2-0.9-0.2-1.6c0.1-1.3,1.6-1.9,3.9-1.9c2.7,0,3.8,1,3.8,3.6v12.5c0,3.7,1.5,5.2,3.9,5.2c3.4,0,5.9-2,7.9-5.4v-15.3
				c0.6-0.3,1.4-0.5,2.2-0.5c1.3,0,1.9,0.6,1.9,1.5v18.4c0,1.1,0.5,1.4,1.2,1.4h1.9c0.1,0.3,0.2,0.6,0.2,1.3c0,1.2-1.3,2-3.8,2
				C105.6,432.9,104,432.1,104,428.8z"/>
			<path class="st1" d="M122.1,412.5v0.3c2.1-2.7,5.1-5,8-5c2.8,0,4.4,1.4,4.4,4.3c0,2.1-0.9,2.8-2.3,2.8c-0.6,0-1.2-0.3-1.5-0.6
				c0-1.3-0.6-2.3-2.3-2.3c-2.2,0-4.6,1.8-6.4,4.5v16c-0.4,0.3-1.2,0.5-2.1,0.5c-1,0-1.8-0.3-1.8-1.8v-17.6c0-1.1-0.5-1.6-1.3-1.6
				H115c-0.2-0.6-0.3-1-0.3-1.7c0-1.1,1.3-1.9,3.5-1.9C120.7,408.2,122.1,409.3,122.1,412.5z"/>
			<path class="st1" d="M154.7,425.7c0,3.1,0.9,3.9,3.4,3.9h3.5c0.1,0.3,0.2,0.6,0.2,1.2c0,1.1-1.4,2.1-4.9,2.1c-4.2,0-6-1.9-6-6.3
				v-29c0.5-0.4,0.9-0.6,1.9-0.6c1.5,0.1,1.9,0.8,1.9,1.7V425.7z"/>
			<path class="st1" d="M164.6,399.5c0-1.6,0.9-2.4,2.4-2.4c1.6,0,2.5,0.8,2.5,3.5c0,3.8-1.2,6-2.6,6c-0.8,0-1.2-0.3-1.3-0.9
				c1-0.9,1.4-3,1.4-4C165.4,401.8,164.6,401,164.6,399.5z"/>
			<path class="st1" d="M178,421c0.1,5.8,3.2,8.8,7.5,8.8c3.6,0,6.8-1.4,8-2.3c0.5,0.3,0.9,0.8,0.9,1.7c0,0.9-0.4,1.4-0.9,1.8
				c-1.4,1-3.8,2.4-8.3,2.4c-6.6,0-10.9-5.1-10.9-12.7c0-8.6,5.4-12.9,11.1-12.9c6.2,0,9.2,4.7,9.2,10.6c0,1-0.1,1.9-0.4,2.6H178z
				 M178.2,418.2h12.9c0-4.1-1.8-7-5.8-7C181.9,411.2,178.9,413.5,178.2,418.2z"/>
			<path class="st1" d="M206.6,412.2v0.9c2.2-3.2,4.9-5.4,8.6-5.4c3.3,0,5.6,1.8,6.3,5.4c2.3-3.1,5.3-5.4,9.1-5.4
				c4.2,0,7.1,2.7,7.1,8.4v12.5c0,0.8,0.3,1.4,1,1.4h1.9c0.2,0.3,0.3,0.5,0.3,1.1c0,1.1-1.2,1.8-3.8,1.8c-2.1,0-3.3-1-3.3-3.6v-12.2
				c0-3.5-1.5-5.3-4.2-5.3c-3.2,0-5.6,1.9-7.7,4.8v12.1c0,1,0.3,1.4,0.9,1.4h1.8c0.1,0.3,0.2,0.6,0.2,1.1c0,1.2-1.5,1.7-3.8,1.7
				c-2.1,0-3.2-1-3.2-3.6V417c0-3.4-1.3-5.2-4-5.2c-2.9,0-5.3,2-7.2,4.8v15.9c-0.5,0.3-1.2,0.5-2.2,0.5c-1,0-1.9-0.4-1.9-2v-17.6
				c0-1.1-0.5-1.4-1.3-1.4h-1.8c-0.2-0.5-0.4-0.9-0.4-1.7c0-1.3,1.3-1.9,3.7-1.9C205.1,408.2,206.6,409.5,206.6,412.2z"/>
			<path class="st1" d="M251.3,412c2-2.5,4.9-4.2,7.9-4.2c4.7,0,9.1,2.7,9.1,12.4c0,9-4.8,13.2-9.9,13.2c-3.2,0-5.5-1.4-7.1-3v12.1
				c-0.5,0.3-1,0.4-2,0.4c-1,0-1.9-0.4-1.9-2v-27.6c0-1.1-0.5-1.4-1.2-1.4h-1.8c-0.2-0.5-0.4-0.9-0.4-1.7c0-1.3,1.1-1.9,3.6-1.9
				C249.9,408.2,251.2,409.6,251.3,412z M251.3,415.6v10.7c1.1,1.4,3.3,3.5,6.3,3.5c3.8,0,6.8-2.9,6.8-9.2c0-7.4-3.2-8.8-6.3-8.8
				C255.4,411.8,253.2,413.1,251.3,415.6z"/>
			<path class="st1" d="M278.7,425.7c0,3.1,0.9,3.9,3.4,3.9h3.5c0.1,0.3,0.2,0.6,0.2,1.2c0,1.1-1.4,2.1-4.9,2.1c-4.2,0-6-1.9-6-6.3
				v-29c0.5-0.4,0.9-0.6,1.9-0.6c1.5,0.1,1.9,0.8,1.9,1.7V425.7z"/>
			<path class="st1" d="M300.7,407.7c6.6,0,11,4.1,11,12.9c0,9.3-4.7,12.8-11.3,12.8c-6.5,0-11.1-3.6-11.1-12.8
				C289.3,411.8,294.1,407.7,300.7,407.7z M300.5,429.8c4.3,0,7.2-2.4,7.2-9.2c0-6.3-2.7-9.3-7-9.3c-4.3,0-7.4,3-7.4,9.3
				C293.4,427.5,296.3,429.8,300.5,429.8z"/>
			<path class="st1" d="M324.1,412.2v16.2c0,1,0.5,1.3,1.2,1.3h1.5c0.2,0.3,0.3,0.7,0.3,1.3c0,1.2-1,1.9-3.4,1.9
				c-2.1,0-3.4-0.9-3.4-3.5v-16.1c0-1.1-0.5-1.4-1.3-1.4h-1.5c-0.2-0.4-0.3-0.9-0.3-1.5c0-1.5,1.4-2.1,3.3-2.1
				C322.7,408.2,324.1,409,324.1,412.2z M321.7,398.7c1.6,0,2.5,0.9,2.5,2.6c0,1.7-0.9,2.5-2.5,2.5c-1.6,0-2.5-0.8-2.5-2.5
				C319.2,399.5,320,398.7,321.7,398.7z"/>
			<path class="st1" d="M361.9,430.5c-2,1.8-4.4,2.9-7.3,2.9c-5.2,0-9.9-3.6-9.9-12.7c0-9.2,5.4-12.9,10.4-12.9c3,0,5,0.9,6.5,2.5
				v-11.6c0-0.9,0.6-1.5,1.6-1.5c1.1,0,1.7,0.3,2.1,0.5v30.5c0,1.3,0.7,1.7,1.6,1.7h1.6c0.2,0.4,0.3,0.7,0.3,1.3
				c0,0.9-0.9,1.7-3,1.7C364.1,432.9,362.5,432.1,361.9,430.5z M361.6,427.5v-13.2c-1.5-1.7-3-2.6-6-2.6c-3.2,0-7.1,2.4-7.1,8.8
				c0,6.5,2.9,9.3,6.6,9.3C358,429.8,360,428.8,361.6,427.5z"/>
			<path class="st1" d="M377.1,421c0.1,5.8,3.2,8.8,7.5,8.8c3.6,0,6.8-1.4,8-2.3c0.5,0.3,0.9,0.8,0.9,1.7c0,0.9-0.4,1.4-0.9,1.8
				c-1.4,1-3.8,2.4-8.3,2.4c-6.6,0-10.9-5.1-10.9-12.7c0-8.6,5.4-12.9,11.2-12.9c6.2,0,9.2,4.7,9.2,10.6c0,1-0.1,1.9-0.4,2.6H377.1z
				 M377.3,418.2h12.9c0-4.1-1.8-7-5.8-7C381.1,411.2,378.1,413.5,377.3,418.2z"/>
		</g>
		<g>
			<path class="st1" d="M51.8,455c0.6,0.6,0.8,1.3,0.8,2c0,0.8-0.6,1.5-1.1,1.9c-1.6-1.3-4.8-2.8-10.3-2.8c-5.4,0-7.6,2.4-7.6,5.3
				c0,3.2,2.2,4.9,9.1,6.9c7.7,2,11.3,4.6,11.3,10.5c0.1,5.9-4,9.9-12.5,9.9c-4.7,0-8.2-1.1-10.3-2.4c-1.5-1-2.3-2-2.3-3
				c0-1,0.4-1.6,0.7-2c2.6,2.2,7.2,3.5,11.8,3.5c6.4,0,8.8-2.6,8.8-5.8c0-3.3-2-5.1-8.7-7c-8.6-2.4-11.7-4.8-11.7-10.6
				c0-5.4,3.6-9.5,11.5-9.5C47.2,451.9,50.3,453.6,51.8,455z"/>
			<path class="st1" d="M60.7,466.8c0-2.5,4.9-3.7,8.4-3.7c4.6,0,8.6,1.9,8.6,7.4v13.1c0,1.3,0.5,1.8,1.3,1.8h1.4
				c0.2,0.2,0.3,0.7,0.3,1.3c0,1-1,1.5-3.3,1.5c-1.9,0-3.2-1.4-3.2-3.5v-0.2c-2.5,2.5-5.6,4.2-8.8,4.2c-4.6,0-6.8-3.2-6.8-7.6
				c0-4,2.3-6.6,7-6.9l8.6-0.5v-2.2c0-3.8-2.5-4.9-5.3-4.9c-3.1,0-6.2,0.9-7.6,1.8C61,468,60.7,467.4,60.7,466.8z M74.3,481.3v-4.8
				l-8.4,0.8c-2.6,0.3-3.6,1.6-3.6,3.8c0,2.3,1.2,4.2,3.8,4.2C68.8,485.3,71.4,484,74.3,481.3z"/>
			<path class="st1" d="M91.4,467.5v16.2c0,1,0.5,1.3,1.2,1.3h1.5c0.2,0.3,0.3,0.7,0.3,1.3c0,1.2-1,1.9-3.4,1.9
				c-2.1,0-3.4-0.9-3.4-3.5v-16.1c0-1.1-0.5-1.4-1.3-1.4h-1.5c-0.2-0.4-0.3-0.9-0.3-1.5c0-1.5,1.4-2.1,3.3-2.1
				C90,463.5,91.4,464.3,91.4,467.5z M89,454c1.6,0,2.5,0.9,2.5,2.6c0,1.7-0.9,2.5-2.5,2.5c-1.6,0-2.5-0.8-2.5-2.5
				C86.5,454.8,87.3,454,89,454z"/>
			<path class="st1" d="M106.3,467.5v0.8c2.4-3.1,5.2-5.3,9-5.3c4.2,0,7.1,2.7,7.1,8.4v12.5c0,0.8,0.3,1.4,1,1.4h2
				c0.1,0.3,0.2,0.5,0.2,1.1c0,1.1-1.2,1.8-3.8,1.8c-2.2,0-3.3-1-3.3-3.6v-12.2c0-3.5-1.7-5.4-4.3-5.4c-3.3,0-5.7,2.1-7.8,5.1v15.7
				c-0.5,0.3-1.2,0.5-2.2,0.5c-1,0-1.9-0.4-1.9-2v-17.6c0-1.1-0.5-1.4-1.3-1.4h-1.8c-0.2-0.5-0.4-0.9-0.4-1.7c0-1.3,1.1-1.9,3.6-1.9
				C104.8,463.5,106.3,464.9,106.3,467.5z"/>
			<path class="st1" d="M136.2,466.9v14.1c0,3.1,1.1,3.8,3.1,3.8h4.9c0.2,0.4,0.3,0.6,0.3,1.1c0,1.3-1.2,2.3-6.2,2.3
				c-3.4,0-5.8-1.4-5.8-6.3v-15h-3c-0.3-0.4-0.4-0.8-0.4-1.4c0-1.2,0.4-1.9,1.7-1.9h1.7v-6.7c0.4-0.2,1.2-0.4,2-0.4
				c1,0,1.7,0.5,1.7,1.7v5.4h7.8c0.3,0.3,0.4,0.7,0.4,1.3c0,0.8-0.3,2-1.9,2H136.2z"/>
			<path class="st1" d="M149.1,476.5c-0.3-0.5-0.5-1-0.5-1.8c0-1.1,0.5-1.9,2-1.9h13.8c0.3,0.3,0.4,0.9,0.4,1.7c0,1.2-0.5,2-2.1,2
				H149.1z"/>
			<path class="st1" d="M186.8,473.1c-0.2-0.5-0.4-0.9-0.4-1.7c0-0.9,0.3-1.6,2.4-1.6h8.2c2.2,0,2.8,0.8,2.8,3.2v14.8
				c-0.5,0.3-0.9,0.5-1.8,0.5c-0.9,0-1.5-0.3-1.5-1.6v-3.3c-2.6,3.3-6,5.4-10.4,5.4c-7.8,0-14.8-5.4-14.8-18.4
				c0-12.5,6.8-18.4,15.5-18.4c7.7,0,11.7,3.4,11.7,5.1c0,1.1-0.9,1.7-1.6,1.8c-1.9-1.7-4.7-3.3-10-3.3c-6.4,0-11.9,4.8-11.9,14.8
				c0,10.8,5.6,14.9,11.4,14.9c4.1,0,7.8-2.2,10.1-5.8v-6.4H186.8z"/>
			<path class="st1" d="M213.3,467.5v16.2c0,1,0.5,1.3,1.2,1.3h1.5c0.2,0.3,0.3,0.7,0.3,1.3c0,1.2-1,1.9-3.4,1.9
				c-2.1,0-3.4-0.9-3.4-3.5v-16.1c0-1.1-0.5-1.4-1.3-1.4h-1.5c-0.2-0.4-0.3-0.9-0.3-1.5c0-1.5,1.4-2.1,3.3-2.1
				C211.9,463.5,213.3,464.3,213.3,467.5z M210.9,454c1.6,0,2.5,0.9,2.5,2.6c0,1.7-0.9,2.5-2.5,2.5c-1.6,0-2.5-0.8-2.5-2.5
				C208.4,454.8,209.2,454,210.9,454z"/>
			<path class="st1" d="M226.3,481c0,3.1,0.9,3.9,3.4,3.9h3.5c0.1,0.3,0.2,0.6,0.2,1.2c0,1.1-1.4,2.1-4.9,2.1c-4.2,0-6-1.9-6-6.3
				v-29c0.5-0.4,0.9-0.6,1.9-0.6c1.5,0.1,1.9,0.8,1.9,1.7V481z"/>
			<path class="st1" d="M241.5,481c0,3.1,0.9,3.9,3.4,3.9h3.5c0.1,0.3,0.2,0.6,0.2,1.2c0,1.1-1.4,2.1-4.9,2.1c-4.2,0-6-1.9-6-6.3
				v-29c0.5-0.4,0.9-0.6,1.9-0.6c1.5,0.1,1.9,0.8,1.9,1.7V481z"/>
			<path class="st1" d="M255.8,476.3c0.1,5.8,3.2,8.8,7.5,8.8c3.6,0,6.8-1.4,8-2.3c0.5,0.3,0.9,0.8,0.9,1.7c0,0.9-0.4,1.4-0.9,1.8
				c-1.4,1-3.8,2.4-8.3,2.4c-6.6,0-10.9-5.1-10.9-12.7c0-8.6,5.4-12.9,11.1-12.9c6.2,0,9.2,4.7,9.2,10.6c0,1-0.1,1.9-0.4,2.6H255.8z
				 M256,473.5h12.9c0-4.1-1.8-7-5.8-7C259.8,466.5,256.8,468.8,256,473.5z"/>
			<path class="st1" d="M294.9,466.9c0,1-0.4,1.7-0.9,2c-1.1-1-4.1-2-7.6-2c-3.6,0-4.9,1.5-4.9,3.2c0,2.1,1.8,3.1,5.9,3.8
				c6,1,8.4,3.2,8.4,7.5c0,4.5-3,7.2-9.1,7.2c-5.5,0-9.3-2.1-9.3-3.9c0-1.1,0.3-1.6,0.8-2.1c1.5,1.1,5.2,2.6,8.2,2.6
				c4.3,0,5.8-1.6,5.8-3.6c0-2.3-1.6-3.3-5.8-4.1c-6.2-1.1-8.5-3-8.5-7.5c0-3.9,2.9-7,8.5-7C292.1,463,294.9,465.2,294.9,466.9z"/>
		</g>
		<g>
			<g>
				<path class="st2" d="M257.4,119.6c-47.8,0-95.4,19.8-129.2,58.6l-89.1,102c-4.1,3.8-8.6,6.9-13.4,9.5
					c18.7,6.8,38.6,10.4,58.9,10.4c1.7,0,3.4,0,5.1-0.1c42-1.2,81.6-17.5,112.1-46c1.1-1,2.3-2,3.3-3.1c1.1-1.2,4.3-4.4,6.8-7.2
					l0.7-0.8l0.1-0.1l1.1-1.3l89-101.9c4.1-3.8,8.7-7,13.4-9.5C297.3,123.1,277.3,119.6,257.4,119.6"/>
			</g>
			<path class="st3" d="M426.8,95.6c-37.9,0-75.5,15.7-102.3,46.4L254,222.7c-3.2,3-6.8,5.5-10.6,7.5c14.8,5.4,30.6,8.2,46.6,8.2
				c1.3,0,2.7,0,4-0.1c33.2-1,64.7-13.9,88.8-36.5c0.9-0.8,1.8-1.6,2.6-2.4c0.9-0.9,3.4-3.5,5.4-5.7l0.6-0.6l0.1-0.1l0.9-1
				l70.5-80.7c3.3-3,6.9-5.5,10.6-7.6C458.4,98.3,442.6,95.6,426.8,95.6"/>
			<path class="st4" d="M404.6,12.4c-25.6,0-51,10.6-69.1,31.3l-47.6,54.6c-2.2,2-4.6,3.7-7.1,5.1c10,3.7,20.6,5.6,31.5,5.6
				c0.9,0,1.8,0,2.7,0c22.4-0.7,43.7-9.4,60-24.6c0.6-0.5,1.2-1.1,1.8-1.6c0.6-0.6,2.3-2.4,3.6-3.9l0.4-0.4l0.1,0l0.6-0.7L429,23
				c2.2-2,4.6-3.7,7.2-5.1C426,14.2,415.3,12.4,404.6,12.4"/>
		</g>
	</g>
</g>
</svg>
